# xmcd
#
# Track frame offsets:
#	150
#	11277
#	22855
#	31370
#	43285
#	52227
#	63150
#	72510
#	82382
#	93087
#	105285
#	115515
#	127757
#	138847
#	150262
#	161482
#	173787
#	187632
#	197710
#	211575
#	222785
#	233750
#	247605
#	260962
#	271840
#	285437
#	297032
#	307225
#	318902
#	331347
#	341212
#
# Disc length: 4687 seconds
#
# Revision: 1
# Processed by: cddbd v1.5.1PL0 Copyright (c) Steve Scherf et al.
# Submitted via: audiograbber 1.80
#
DISCID=a3124d1f
DTITLE=hank locklin - Please Help Me I'm Falling cd4
DYEAR=1900
DGENRE=
TTITLE0=Kentucky Waltz 
TTITLE1=Candy Kisses 
TTITLE2=Rosalita 
TTITLE3=Wishing On A Star 
TTITLE4=Flyin' South 
TTITLE5=Behind The Footlights 
TTITLE6=Sweet Temptation 
TTITLE7=A Little Bit Lonesome 
TTITLE8=Ivory Tower 
TTITLE9=Too Close To Her (And Too Far From You) 
TTITLE10=Followed Closely By My Teardrops 
TTITLE11=It Keeps Right On A Hurtin' 
TTITLE12=You Never Want To Love Me 
TTITLE13=Wooden Soldier 
TTITLE14=Kiss On The Door 
TTITLE15=Galway Bay 
TTITLE16=Too-Ra-Loo-Ra-Loo-Ral 
TTITLE17=My Wild Irish Rose 
TTITLE18=Danny Dear 
TTITLE19=Danny Boy 
TTITLE20=When Irish Eyes Are Smiling 
TTITLE21=Forty Shades Of Green 
TTITLE22=If We Only Had Old Ireland Over Here 
TTITLE23=A Little Bit Of Heaven 
TTITLE24=The Old Bog Road 
TTITLE25=Kevin Barry 
TTITLE26=I'll Take You Home Again, Kathleen 
TTITLE27=I Was Coming Home To You 
TTITLE28=I Feel A Cry Coming On 
TTITLE29=The Girls Get Prettier (Every Day) 
TTITLE30=Hello Heartache 
EXTD=
EXTT0=
EXTT1=
EXTT2=
EXTT3=
EXTT4=
EXTT5=
EXTT6=
EXTT7=
EXTT8=
EXTT9=
EXTT10=
EXTT11=
EXTT12=
EXTT13=
EXTT14=
EXTT15=
EXTT16=
EXTT17=
EXTT18=
EXTT19=
EXTT20=
EXTT21=
EXTT22=
EXTT23=
EXTT24=
EXTT25=
EXTT26=
EXTT27=
EXTT28=
EXTT29=
EXTT30=
PLAYORDER=
